<svg height='100px' width='100px'  fill="#000000" version="1.1" xmlns:rdf="http://www.w3.org/1999/02/22-rdf-syntax-ns#" xmlns:svg="http://www.w3.org/2000/svg" xmlns:sodipodi="http://sodipodi.sourceforge.net/DTD/sodipodi-0.dtd" xmlns:cc="http://creativecommons.org/ns#" xmlns:dc="http://purl.org/dc/elements/1.1/" xmlns:inkscape="http://www.inkscape.org/namespaces/inkscape" xmlns="http://www.w3.org/2000/svg" xmlns:xlink="http://www.w3.org/1999/xlink" x="0px" y="0px" viewBox="0.006 0 99.988 100" enable-background="new 0.006 0 99.988 100" xml:space="preserve"><path d="M99.994,100L0.006,99.714V0l99.988,0.285V100z M35.854,94.215l58.533,0.167V5.872L67.973,5.796v26.255l26.369,0.035
	l-0.006,3.73l-26.363-0.035v28.387l26.369,0.036l-0.006,3.73L67.973,67.9v26.379h-3.73V67.896l-28.388-0.038V94.215z M5.613,94.128
	l26.511,0.076V67.853L5.659,67.816l0.005-3.73l26.46,0.035V35.734L5.659,35.698l0.005-3.73l26.46,0.035V5.721h3.73v26.288
	l28.388,0.038V5.786L5.613,5.618V94.128z M35.854,64.126l28.388,0.038V35.777l-28.388-0.038V64.126z"></path><path d="
	M91.914,81.074c0,5.986-4.854,10.84-10.84,10.84c-5.987,0-10.84-4.854-10.84-10.84c0-5.987,4.853-10.84,10.84-10.84
	C87.061,70.234,91.914,75.087,91.914,81.074z"></path><path d="
	M91.914,50.241c0,5.987-4.854,10.84-10.84,10.84c-5.987,0-10.84-4.854-10.84-10.84s4.853-10.84,10.84-10.84
	C87.061,39.401,91.914,44.254,91.914,50.241z"></path><path d="
	M60.117,80.592c0,5.987-4.854,10.841-10.84,10.841s-10.84-4.854-10.84-10.841c0-5.986,4.854-10.839,10.84-10.839
	S60.117,74.605,60.117,80.592z"></path><path d="
	M29.284,80.592c0,5.987-4.853,10.841-10.84,10.841c-5.986,0-10.84-4.854-10.84-10.841c0-5.986,4.854-10.839,10.84-10.839
	C24.431,69.753,29.284,74.605,29.284,80.592z"></path><path d="
	M60.117,18.926c0,5.987-4.854,10.84-10.84,10.84s-10.84-4.853-10.84-10.84s4.854-10.84,10.84-10.84S60.117,12.939,60.117,18.926z"></path></svg>